<svg width="32" height="32" viewBox="0 0 32 32" fill="none" xmlns="http://www.w3.org/2000/svg">
<mask id="mask0_2755_26490" style="mask-type:alpha" maskUnits="userSpaceOnUse" x="8" y="8" width="16" height="16">
<rect x="8" y="8" width="16" height="16" fill="#D9D9D9"/>
</mask>
<g mask="url(#mask0_2755_26490)">
<path d="M17.25 13.9583C17.0778 13.9583 16.9306 13.8972 16.8083 13.775C16.6861 13.6528 16.625 13.5056 16.625 13.3333C16.625 13.1611 16.6861 13.0139 16.8083 12.8917C16.9306 12.7694 17.0778 12.7083 17.25 12.7083H18.625V10.75C18.625 10.5778 18.6861 10.4306 18.8083 10.3083C18.9306 10.1861 19.0778 10.125 19.25 10.125C19.4222 10.125 19.5694 10.1861 19.6917 10.3083C19.8139 10.4306 19.875 10.5778 19.875 10.75V12.7083H21.25C21.4222 12.7083 21.5694 12.7694 21.6917 12.8917C21.8139 13.0139 21.875 13.1611 21.875 13.3333C21.875 13.5056 21.8139 13.6528 21.6917 13.775C21.5694 13.8972 21.4222 13.9583 21.25 13.9583H17.25ZM19.25 21.875C19.0778 21.875 18.9306 21.8139 18.8083 21.6917C18.6861 21.5694 18.625 21.4222 18.625 21.25V16C18.625 15.8278 18.6861 15.6806 18.8083 15.5583C18.9306 15.4361 19.0778 15.375 19.25 15.375C19.4222 15.375 19.5694 15.4361 19.6917 15.5583C19.8139 15.6806 19.875 15.8278 19.875 16V21.25C19.875 21.4222 19.8139 21.5694 19.6917 21.6917C19.5694 21.8139 19.4222 21.875 19.25 21.875ZM12.75 21.875C12.5778 21.875 12.4306 21.8139 12.3083 21.6917C12.1861 21.5694 12.125 21.4222 12.125 21.25V19.2917H10.75C10.5778 19.2917 10.4306 19.2306 10.3083 19.1083C10.1861 18.9861 10.125 18.8389 10.125 18.6667C10.125 18.4944 10.1861 18.3472 10.3083 18.225C10.4306 18.1028 10.5778 18.0417 10.75 18.0417H14.75C14.9222 18.0417 15.0694 18.1028 15.1917 18.225C15.3139 18.3472 15.375 18.4944 15.375 18.6667C15.375 18.8389 15.3139 18.9861 15.1917 19.1083C15.0694 19.2306 14.9222 19.2917 14.75 19.2917H13.375V21.25C13.375 21.4222 13.3139 21.5694 13.1917 21.6917C13.0694 21.8139 12.9222 21.875 12.75 21.875ZM12.75 16.625C12.5778 16.625 12.4306 16.5639 12.3083 16.4417C12.1861 16.3194 12.125 16.1722 12.125 16V10.75C12.125 10.5778 12.1861 10.4306 12.3083 10.3083C12.4306 10.1861 12.5778 10.125 12.75 10.125C12.9222 10.125 13.0694 10.1861 13.1917 10.3083C13.3139 10.4306 13.375 10.5778 13.375 10.75V16C13.375 16.1722 13.3139 16.3194 13.1917 16.4417C13.0694 16.5639 12.9222 16.625 12.75 16.625Z" fill="white"/>
</g>
</svg>
